<?xml version="1.0" standalone="no"?>
<!DOCTYPE svg PUBLIC "-//W3C//DTD SVG 20010904//EN"
 "http://www.w3.org/TR/2001/REC-SVG-20010904/DTD/svg10.dtd">
<svg version="1.0" xmlns="http://www.w3.org/2000/svg"
 width="1976.000000pt" height="1953.000000pt" viewBox="0 0 1976.000000 1953.000000"
 preserveAspectRatio="xMidYMid meet">

<g transform="translate(0.000000,1953.000000) scale(0.100000,-0.100000)"
fill="#000000" stroke="none">
<path d="M5580 18783 c-98 -15 -120 -19 -230 -49 -254 -67 -510 -194 -740
-365 -93 -69 -312 -294 -392 -402 -65 -88 -167 -256 -217 -357 -18 -36 -36
-69 -40 -73 -5 -5 -95 -10 -202 -11 -183 -3 -302 -17 -395 -46 -17 -6 -37 -10
-45 -10 -8 0 -55 -13 -105 -29 -497 -159 -901 -478 -1161 -916 -50 -84 -125
-241 -148 -310 -52 -158 -79 -334 -62 -409 18 -81 107 -154 169 -141 39 9 36
-7 -14 -66 -304 -361 -522 -708 -672 -1069 -27 -63 -57 -134 -67 -157 -11 -23
-19 -49 -19 -57 0 -8 -4 -17 -9 -20 -5 -3 -11 -16 -14 -28 -2 -13 -18 -61 -35
-108 -109 -305 -180 -647 -222 -1065 -23 -231 -28 -1010 -26 -4065 2 -3551 -1
-3374 70 -3920 11 -78 61 -324 81 -395 8 -27 21 -81 30 -119 9 -38 20 -78 25
-90 4 -11 14 -41 20 -66 16 -57 78 -235 95 -275 8 -16 39 -88 70 -160 78 -179
178 -381 250 -500 60 -100 185 -283 234 -341 14 -17 33 -40 41 -50 45 -59 179
-224 205 -254 199 -229 488 -497 750 -695 44 -33 82 -62 85 -65 29 -31 438
-300 456 -300 3 0 20 -11 38 -25 18 -14 35 -25 39 -25 3 0 41 -21 84 -46 86
-52 469 -248 548 -281 28 -12 89 -40 137 -62 48 -23 90 -41 93 -41 4 0 25 -9
48 -19 126 -57 518 -190 682 -232 17 -4 55 -14 85 -22 30 -8 91 -22 135 -31
44 -10 96 -21 115 -26 58 -14 181 -38 255 -50 39 -6 93 -15 120 -20 63 -11
248 -35 385 -49 58 -6 215 -16 350 -21 257 -10 6608 -14 6915 -4 287 9 563 31
750 59 153 24 183 29 330 60 72 15 148 31 170 35 22 4 69 15 105 25 36 9 81
20 100 25 157 37 703 225 809 279 53 27 61 31 70 31 6 0 47 17 93 38 46 21 99
45 118 52 173 70 828 442 1025 583 22 15 81 57 130 92 134 96 182 132 250 193
161 143 219 200 359 352 189 206 236 261 337 395 172 229 321 466 420 665 60
122 66 136 124 270 20 47 43 99 50 115 14 31 51 132 65 175 25 75 63 199 70
225 5 17 17 62 28 100 10 39 24 93 30 120 65 293 82 403 122 795 6 58 15 274
20 480 12 489 12 6524 0 6865 -10 268 -16 344 -51 575 -30 199 -35 228 -54
305 -9 39 -21 86 -25 105 -17 73 -48 188 -59 221 -6 19 -17 54 -25 79 -41 125
-111 316 -145 395 -5 11 -16 36 -24 55 -8 19 -36 79 -61 133 -25 54 -46 99
-46 101 0 6 -74 138 -138 246 -59 99 -127 197 -200 290 -24 30 -49 62 -56 70
-6 8 -46 57 -89 108 -42 51 -77 97 -77 102 0 6 49 10 118 10 145 0 192 18 232
90 21 39 25 57 24 132 -1 100 -26 240 -62 348 -73 223 -245 445 -446 578 -164
108 -295 159 -523 204 -48 9 -62 16 -66 32 -16 70 -99 271 -150 361 -130 232
-368 455 -593 557 -118 53 -149 64 -239 87 -22 5 -58 14 -80 20 -22 5 -85 15
-140 21 -55 6 -114 12 -132 15 -17 2 -96 -3 -175 -10 -133 -12 -178 -20 -283
-48 -52 -14 -228 -84 -284 -114 -50 -26 -76 -29 -88 -9 -29 48 -417 269 -640
363 -55 24 -228 82 -303 103 -25 7 -56 16 -70 20 -24 8 -125 31 -220 50 -25 5
-67 15 -95 21 -27 6 -75 16 -105 22 -36 7 -493 12 -1335 16 -1196 6 -1284 8
-1335 24 -320 105 -636 130 -1000 78 -75 -11 -242 -54 -314 -82 -48 -18 -99
-18 -1351 -19 l-1302 0 -94 48 c-183 95 -380 159 -589 192 -30 4 -86 13 -125
19 -101 15 -441 12 -555 -6z m610 -392 c35 -6 78 -15 95 -20 16 -6 50 -15 75
-21 25 -7 63 -19 85 -27 22 -9 49 -19 60 -22 11 -4 45 -20 75 -34 30 -15 60
-27 67 -27 6 0 13 -4 15 -8 2 -4 30 -23 63 -41 394 -219 716 -635 831 -1070
19 -73 44 -251 44 -315 0 -75 4 -77 85 -54 103 29 307 30 391 1 226 -78 442
-241 574 -434 71 -104 134 -225 126 -245 -5 -12 -482 -14 -3253 -12 l-3248 3
3 24 c7 66 134 292 237 421 176 220 482 441 725 522 160 54 236 69 390 74 199
8 369 -25 523 -103 26 -13 52 -21 56 -18 5 2 11 19 14 37 32 187 112 404 202
543 19 31 35 58 35 61 0 3 28 45 62 92 67 93 203 233 308 317 167 134 460 284
637 326 178 42 226 47 443 44 118 -1 244 -8 280 -14z m4310 -150 c57 -9 104
-20 215 -51 95 -26 287 -122 395 -198 164 -115 283 -235 402 -402 110 -157
202 -364 229 -520 13 -72 37 -391 32 -407 -3 -7 1 -15 8 -17 8 -3 350 -7 761
-8 577 -3 750 -6 760 -16 10 -10 9 -18 -5 -41 -32 -54 -81 -161 -92 -197 -3
-12 -16 -25 -28 -28 -12 -3 -632 -6 -1377 -6 -907 0 -1368 -4 -1395 -11 -62
-16 -81 -28 -112 -73 -41 -57 -54 -111 -42 -164 5 -24 7 -48 3 -53 -10 -16
-382 -9 -396 8 -8 10 -7 25 2 57 22 80 -24 168 -108 208 -45 22 -62 23 -349
28 l-302 5 -33 65 c-41 78 -87 160 -100 177 -6 7 -8 20 -4 28 5 13 134 15
1118 15 746 0 1125 4 1151 11 55 15 102 61 121 118 21 66 20 92 -5 147 -42 89
-118 120 -266 110 -54 -3 -586 -6 -1183 -7 l-1085 -1 0 59 c1 55 32 176 62
236 l14 27 1008 0 1009 0 44 33 c82 63 108 148 68 227 -22 43 -54 69 -118 93
-38 15 -125 17 -927 17 -540 0 -885 4 -885 9 0 13 160 167 247 237 188 152
411 247 688 292 73 12 385 7 475 -7z m-2045 -68 c39 -36 98 -92 133 -125 34
-33 62 -67 62 -76 0 -21 -241 -253 -277 -267 -22 -8 -29 -5 -55 25 -16 19 -71
79 -121 134 -51 54 -95 104 -99 111 -5 8 19 39 70 87 42 41 99 98 125 126 30
32 57 52 70 52 13 0 51 -28 92 -67z m3728 -18 c45 -47 108 -107 140 -132 31
-25 57 -53 57 -62 0 -9 -24 -36 -54 -59 -29 -24 -92 -83 -139 -133 -53 -55
-93 -89 -106 -89 -13 0 -43 26 -82 72 -34 39 -92 102 -130 139 -78 78 -80 94
-15 138 22 16 78 70 124 120 51 55 91 91 103 91 11 0 54 -36 102 -85z m-4344
-160 c54 -56 71 -80 66 -93 -3 -9 -9 -39 -12 -65 -3 -26 -10 -50 -14 -53 -5
-3 -9 -14 -9 -24 0 -23 -59 -70 -87 -70 -25 0 -31 7 -74 90 -18 36 -55 100
-81 142 -26 43 -48 84 -48 93 0 8 12 17 28 20 15 3 47 12 72 19 76 23 81 21
159 -59z m6221 33 c208 -42 382 -164 460 -322 59 -119 53 -216 -23 -361 -55
-105 -60 -108 -200 -116 -114 -7 -152 -14 -252 -41 -73 -21 -239 -109 -318
-169 -60 -46 -81 -57 -95 -50 -85 46 -74 45 -724 51 l-617 5 -46 45 c-44 43
-45 46 -45 106 0 72 25 119 80 146 33 17 96 18 899 18 841 0 866 1 905 20 68
33 116 110 116 187 0 40 -12 67 -49 106 -59 64 -36 62 -606 67 -484 5 -523 6
-558 24 -87 43 -113 135 -62 216 49 77 34 74 455 80 447 6 606 3 680 -12z
m1885 -318 c248 -25 527 -194 687 -416 61 -86 126 -206 146 -269 45 -150 62
-237 62 -326 0 -91 2 -93 91 -79 173 28 271 24 404 -17 205 -64 407 -248 500
-458 14 -33 23 -65 21 -72 -4 -11 -389 -13 -2128 -11 l-2123 3 -4 30 c-4 40
17 189 36 245 64 196 201 346 395 434 122 55 188 69 328 70 111 0 136 -3 215
-28 50 -16 100 -33 112 -39 31 -14 53 -2 53 29 0 15 4 41 9 58 5 17 15 56 22
86 20 93 89 242 157 340 65 93 189 211 285 270 80 50 193 99 292 127 77 22
244 42 305 37 30 -3 91 -9 135 -14z m-7499 -453 c-8 -126 -18 -217 -23 -217
-2 0 -20 8 -41 18 -20 10 -64 27 -97 37 -33 10 -69 21 -80 26 -20 8 -48 13
-145 28 -72 12 -90 20 -90 41 0 10 -7 34 -15 53 -17 41 -20 94 -5 99 5 2 121
2 256 0 l246 -3 -6 -82z m4312 -1630 c6 -5 12 -20 12 -34 0 -79 112 -310 175
-363 8 -7 15 -16 15 -21 0 -5 -1531 -9 -3575 -9 l-3574 0 -63 -23 c-72 -26
-136 -81 -169 -145 -16 -32 -23 -72 -30 -165 -5 -68 -8 -1159 -7 -2487 3
-2297 4 -2366 22 -2415 38 -100 133 -184 226 -200 25 -4 1886 -10 4135 -12
3776 -3 4094 -2 4145 13 109 33 160 73 207 164 l28 55 3 2433 2 2432 198 -2
197 -3 7 -100 c3 -55 5 -1216 5 -2580 l-2 -2480 -26 -66 c-28 -71 -89 -160
-137 -200 -54 -47 -139 -80 -249 -99 -104 -18 -258 -19 -4408 -18 -4464 1
-4326 -1 -4460 38 -78 23 -207 144 -250 235 -47 101 -45 -74 -44 2880 0 2377
2 2766 14 2800 8 22 15 50 15 61 0 12 7 25 16 28 9 4 14 9 11 13 -11 11 25 65
77 117 45 45 141 102 231 137 68 27 331 29 3692 29 1912 -1 3478 1 3480 4 8 7
66 -5 81 -17z m1617 -26 c-18 -132 -143 -279 -300 -355 -125 -61 -192 -76
-341 -76 -141 0 -194 12 -312 69 -53 25 -155 114 -195 169 -65 88 -106 209
-81 235 4 4 283 6 621 5 l615 -1 -7 -46z m486 12 c10 -12 14 -49 14 -137 0
-111 -2 -125 -27 -171 -51 -97 -78 -112 -183 -100 -73 7 -77 14 -42 66 46 69
83 163 118 304 6 22 15 43 22 47 22 14 84 9 98 -9z m-10901 -148 c25 -53 55
-102 67 -110 14 -10 51 -16 103 -17 62 -1 87 -5 103 -19 l22 -18 -40 -41 c-22
-23 -59 -55 -83 -72 -60 -42 -66 -62 -40 -155 24 -90 33 -153 22 -153 -4 0
-22 11 -40 25 -18 14 -35 25 -39 25 -3 0 -31 16 -61 35 -30 19 -61 35 -69 35
-7 0 -56 -25 -108 -55 -51 -30 -99 -55 -106 -55 -17 0 -7 63 25 158 14 40 22
82 19 92 -3 10 -44 51 -90 90 -82 71 -100 92 -88 104 4 3 52 6 107 6 76 0 107
4 124 16 12 8 22 19 22 25 0 5 11 32 25 61 14 28 25 56 25 60 0 16 32 58 44
58 6 0 32 -43 56 -95z m13132 74 c71 -11 191 -46 253 -74 140 -63 211 -104
300 -175 78 -62 247 -238 281 -293 15 -23 30 -44 34 -47 11 -7 101 -176 124
-230 36 -87 44 -113 70 -230 17 -80 30 -270 18 -270 -5 0 -20 9 -33 21 -90 79
-251 159 -319 159 -30 0 -60 18 -60 37 0 27 -72 166 -116 224 -105 138 -275
269 -409 314 -111 38 -155 46 -273 52 -344 16 -625 -129 -816 -422 -29 -44
-60 -101 -69 -126 -21 -55 -41 -75 -82 -82 -113 -20 -238 -75 -308 -138 l-47
-41 0 94 c1 89 18 223 38 298 69 249 260 515 507 702 78 60 281 168 315 168 9
0 20 3 24 7 10 10 94 31 170 44 33 5 62 11 64 14 10 10 262 5 334 -6z m-14452
-186 c13 -27 39 -82 57 -123 l32 -75 107 -7 c104 -7 123 -14 124 -45 0 -13
-52 -67 -101 -103 -55 -42 -69 -59 -69 -87 0 -29 34 -166 45 -184 4 -5 4 -16
1 -24 -4 -11 -19 -7 -68 22 -160 92 -147 87 -176 73 -15 -6 -62 -34 -104 -61
-42 -27 -82 -49 -87 -49 -15 0 -14 37 4 100 31 108 36 135 31 155 -3 12 -43
47 -91 80 -79 54 -86 61 -83 89 l3 31 117 3 116 3 16 33 c9 19 16 41 16 49 0
9 5 19 10 22 6 3 10 12 10 19 0 21 49 126 58 126 5 0 19 -21 32 -47z m12938
-115 l-3 -133 -113 -3 -113 -3 3 128 3 128 30 6 c17 4 67 7 113 8 l83 1 -3
-132z m-10894 104 c2 -4 8 -58 12 -119 8 -132 12 -128 -116 -128 l-85 0 4 120
c2 66 5 123 8 128 6 10 170 9 177 -1z m8671 -510 c116 -26 273 -43 340 -37 39
3 110 6 159 7 82 1 91 0 108 -21 17 -22 18 -100 18 -2306 l0 -2282 -23 -34
c-17 -25 -33 -36 -62 -41 -22 -4 -1823 -7 -4001 -7 -3759 -1 -3963 0 -3982 17
-11 9 -27 37 -37 62 -15 42 -16 217 -12 2310 3 1834 6 2270 17 2292 12 26 42
41 100 51 14 2 1668 3 3675 2 2637 -1 3664 -5 3700 -13z m3673 -188 c77 -21
186 -78 245 -128 85 -73 144 -176 178 -311 19 -77 55 -143 89 -160 16 -8 52
-15 80 -15 185 0 283 -99 266 -270 -4 -37 -16 -78 -27 -97 -27 -43 -127 -133
-179 -161 -43 -23 -114 -30 -125 -12 -4 6 -32 29 -63 52 -31 23 -82 65 -112
93 -146 135 -155 137 -507 133 -217 -3 -285 -7 -308 -18 -39 -19 -173 -120
-205 -155 -35 -38 -135 -105 -173 -116 -68 -19 -205 78 -258 183 -24 47 -29
70 -29 128 0 79 18 124 70 177 35 35 130 63 218 63 76 0 109 16 140 69 30 51
52 107 52 133 0 49 84 208 140 265 128 131 343 193 508 147z m-12692 -300 c19
-5 20 -11 17 -172 -2 -92 -6 -182 -9 -199 l-5 -33 -1067 3 c-587 2 -1118 1
-1180 -3 l-114 -6 -36 -39 c-63 -68 -76 -130 -42 -201 42 -86 -76 -79 1255
-82 648 -1 1183 -6 1187 -10 4 -4 8 -85 8 -181 1 -135 -1 -176 -12 -182 -7 -5
-112 -9 -234 -9 -230 0 -270 -6 -312 -44 -29 -25 -52 -78 -52 -116 0 -47 36
-116 76 -146 l37 -29 241 -5 c133 -3 247 -9 254 -13 15 -10 16 -334 2 -358 -8
-12 -177 -15 -1181 -19 -1093 -5 -1307 -1 -1344 21 -5 3 -22 9 -38 13 -41 10
-128 68 -169 115 -52 56 -73 103 -93 202 -15 77 -16 141 -12 550 5 526 7 538
71 671 68 139 214 244 374 267 63 9 2344 14 2378 5z m14087 -762 c53 -59 94
-219 84 -334 -8 -100 -72 -228 -113 -228 -7 0 -54 45 -106 101 -51 55 -114
117 -140 136 -27 19 -48 42 -47 51 0 10 30 42 66 72 36 30 95 92 131 138 69
86 94 99 125 64z m-2867 -126 c74 -73 134 -140 134 -149 0 -8 -15 -24 -33 -34
-18 -11 -59 -51 -92 -89 -79 -91 -134 -144 -151 -144 -7 0 -36 33 -63 74 -28
41 -80 100 -116 132 -86 76 -87 95 -7 161 32 26 71 65 87 87 46 59 82 96 95
96 6 0 72 -60 146 -134z m1836 -102 c9 -5 58 -48 109 -95 52 -48 114 -103 137
-123 24 -20 85 -74 135 -120 51 -46 144 -130 207 -187 63 -57 120 -108 126
-114 6 -5 53 -48 104 -95 51 -47 103 -94 115 -105 11 -11 54 -49 95 -85 124
-107 130 -113 156 -156 18 -31 24 -55 24 -103 0 -69 -8 -91 -53 -138 -25 -27
-38 -33 -73 -33 -35 0 -51 7 -91 41 -26 22 -55 48 -63 57 -8 9 -42 40 -76 69
-33 29 -78 69 -100 90 -63 61 -538 483 -654 583 -36 30 -101 87 -145 125 -111
98 -338 294 -351 305 -33 25 -81 42 -121 42 -36 0 -53 -8 -96 -40 -29 -22 -61
-48 -72 -58 -11 -11 -49 -44 -85 -74 -36 -30 -67 -57 -70 -60 -3 -3 -34 -30
-70 -60 -36 -30 -67 -58 -70 -61 -3 -3 -48 -43 -100 -89 -52 -45 -126 -111
-165 -145 -38 -34 -128 -114 -200 -176 -71 -63 -157 -139 -190 -169 -33 -31
-94 -85 -135 -122 -41 -36 -109 -98 -150 -137 -41 -39 -80 -71 -86 -71 -7 0
-14 -6 -17 -13 -8 -22 -75 -49 -100 -41 -36 11 -84 52 -101 85 -9 18 -16 57
-16 90 0 91 37 144 185 263 33 27 94 81 135 120 42 39 109 100 150 136 41 35
77 67 80 70 3 3 46 41 95 85 50 44 92 82 95 85 29 29 424 372 474 410 15 12
75 16 310 20 406 7 700 5 718 -6z m-480 -493 c2 -5 23 -26 48 -46 25 -20 74
-65 110 -99 105 -99 388 -347 480 -421 47 -37 87 -71 90 -76 3 -4 31 -27 62
-51 32 -25 87 -73 123 -106 36 -34 70 -62 76 -62 6 0 9 -6 6 -12 -3 -10 -218
-13 -1030 -13 -565 0 -1027 3 -1027 7 0 3 15 19 33 35 19 15 70 60 113 98 44
39 99 86 123 105 24 19 52 43 63 54 11 10 57 48 102 84 44 36 110 91 146 124
36 32 99 86 140 119 41 34 112 95 157 136 130 119 175 149 185 124z m-12699
-816 c63 -31 153 -112 177 -158 13 -26 13 -32 -5 -62 -11 -19 -75 -83 -142
-144 -150 -136 -153 -137 -244 -50 -64 61 -174 160 -216 195 -28 22 -29 36 -5
72 44 69 133 143 200 169 61 22 167 12 235 -22z m-2509 -120 c85 -36 146 -124
146 -212 0 -48 -44 -136 -83 -165 -89 -67 -210 -64 -279 9 -33 35 -68 114 -68
155 0 115 104 227 211 228 20 0 53 -7 73 -15z m1415 -254 c109 -24 167 -44
263 -91 145 -71 378 -243 378 -278 0 -14 -197 -212 -211 -212 -16 0 -223 -191
-548 -507 l-126 -123 -30 33 c-16 17 -46 45 -65 61 -19 16 -116 106 -215 201
-292 279 -344 328 -370 345 -53 35 -225 203 -225 219 0 20 79 93 174 159 105
75 291 156 441 192 136 33 380 33 534 1z m15143 -136 c-1 -27 -6 -59 -11 -70
-5 -11 -16 -45 -26 -75 -66 -196 -241 -433 -434 -583 -85 -66 -83 -65 -226
-136 -202 -101 -255 -116 -510 -146 -129 -16 -142 -15 -355 9 -63 7 -161 26
-178 35 -9 5 -37 15 -62 21 -102 28 -340 138 -370 170 -3 3 -21 17 -40 30 -62
43 -174 137 -205 171 -122 137 -212 280 -275 434 -19 47 -57 181 -53 188 2 4
622 6 1376 5 l1372 -3 -3 -50z m-13542 -1046 c0 -711 -1 -751 -17 -744 -10 4
-40 14 -68 23 -27 9 -67 26 -87 39 -21 13 -40 23 -43 23 -10 0 -76 52 -110 85
-52 51 -113 138 -140 200 -15 33 -33 74 -40 90 -15 35 -23 72 -35 175 -10 89
-13 234 -4 243 4 3 19 0 35 -8 33 -18 111 -20 142 -4 32 17 87 70 103 101 20
38 18 128 -3 158 -34 49 -75 88 -104 100 -16 7 -29 18 -29 24 0 27 130 145
200 182 41 22 157 62 183 63 16 1 17 -41 17 -750z m-3125 414 c9 -38 21 -76
26 -85 5 -10 9 -24 9 -31 0 -7 15 -60 34 -118 18 -57 46 -144 60 -194 67 -225
114 -357 156 -439 25 -50 51 -92 58 -94 15 -5 17 68 2 118 -16 53 -13 408 4
525 14 100 50 231 67 250 5 5 9 19 9 32 0 31 23 39 52 19 12 -9 63 -55 113
-103 49 -49 129 -124 176 -168 271 -253 329 -310 329 -325 0 -17 -114 -132
-275 -280 -44 -40 -190 -185 -325 -322 -135 -136 -253 -248 -262 -248 -44 0
-242 261 -294 386 -9 22 -22 53 -29 69 -29 68 -56 162 -77 265 -17 85 -17 367
0 440 30 127 66 236 99 300 7 14 13 30 13 36 0 11 20 34 31 34 4 0 14 -30 24
-67z m2092 -111 c18 -37 39 -78 47 -92 47 -79 63 -145 76 -305 16 -184 29
-256 70 -365 26 -72 26 -88 -10 -167 -34 -75 -130 -223 -144 -223 -5 0 -61 51
-125 113 -189 183 -421 400 -490 458 -35 30 -66 59 -68 64 -2 6 63 74 144 150
81 77 215 206 297 287 83 81 156 148 161 148 6 0 25 -30 42 -68z m11661 -24
c147 -153 222 -237 222 -249 0 -7 -35 -49 -77 -93 -43 -45 -92 -98 -110 -119
-23 -27 -39 -37 -61 -37 -29 0 -92 41 -162 105 -19 18 -54 45 -77 59 -24 15
-43 34 -43 44 0 9 19 37 41 62 65 71 86 102 104 150 52 138 58 150 75 150 10
0 50 -33 88 -72z m2942 -157 c25 -19 66 -56 93 -80 42 -39 47 -48 47 -88 0
-47 -24 -135 -47 -168 -19 -28 -16 -55 8 -81 20 -21 22 -37 27 -182 3 -111 1
-165 -7 -180 -11 -21 -17 -22 -184 -22 -121 0 -177 4 -185 12 -13 13 -17 335
-4 354 4 6 17 16 30 23 12 6 22 20 22 30 0 18 -63 147 -81 166 -5 5 -9 27 -9
48 0 42 20 66 158 189 49 43 53 43 132 -21z m-2310 -442 c50 -50 93 -102 96
-115 5 -20 -5 -37 -60 -94 -36 -39 -66 -74 -66 -79 0 -14 -75 -61 -97 -61 -14
0 -41 22 -75 61 -29 34 -70 79 -90 100 -21 21 -38 46 -38 56 0 23 200 223 223
223 10 0 58 -41 107 -91z m1089 25 c39 -36 83 -75 98 -87 16 -12 33 -26 39
-32 16 -15 115 -101 244 -210 63 -54 117 -101 120 -104 3 -3 34 -31 70 -61 36
-30 67 -57 70 -60 3 -3 41 -37 85 -75 80 -68 195 -170 310 -275 33 -30 114
-102 180 -160 66 -57 134 -118 150 -135 17 -16 55 -52 85 -80 90 -82 116 -115
99 -126 -8 -4 -97 -7 -199 -6 l-185 2 -71 57 c-39 31 -77 63 -85 70 -8 7 -35
30 -61 51 -26 21 -53 44 -60 50 -7 7 -42 37 -78 66 -36 29 -85 72 -110 95 -25
22 -74 66 -110 96 -36 30 -67 57 -70 61 -3 3 -36 32 -75 64 -38 32 -113 96
-165 141 -202 175 -226 195 -270 216 -25 11 -66 23 -91 26 -78 7 -123 -25
-533 -383 -136 -118 -211 -183 -397 -339 -52 -43 -118 -99 -148 -125 -30 -25
-64 -53 -75 -61 -12 -8 -26 -19 -32 -25 -69 -64 -54 -60 -249 -62 -185 -2
-225 1 -225 16 0 12 142 149 245 237 44 38 121 105 170 149 50 45 108 97 130
116 22 19 64 57 95 85 30 28 66 60 80 72 114 94 255 216 355 307 44 40 132
116 195 170 63 54 144 123 179 154 147 129 197 170 207 170 7 1 44 -29 83 -65z
m-14142 -136 c21 -24 103 -103 182 -177 85 -80 141 -140 139 -149 -8 -42 -154
-87 -312 -97 -198 -12 -424 34 -434 88 -3 13 51 73 177 198 99 98 186 179 194
179 8 0 32 -19 54 -42z m12372 -397 c54 -44 102 -89 106 -100 7 -23 4 -27
-112 -171 -72 -88 -105 -116 -122 -105 -12 7 -151 181 -174 217 -25 40 -21 71
11 95 15 11 57 48 95 82 37 33 74 61 82 61 8 0 59 -36 114 -79z m-12989 -171
c124 -84 264 -135 415 -151 103 -11 287 -5 340 11 17 5 57 17 90 26 83 24 162
63 247 122 26 17 52 32 58 32 6 0 34 -25 62 -55 28 -31 82 -81 120 -111 37
-31 68 -62 68 -69 0 -11 -27 -37 -87 -85 -7 -6 -15 -10 -19 -10 -4 0 -15 -6
-23 -14 -31 -26 -234 -123 -288 -137 -18 -5 -50 -14 -70 -20 -21 -6 -60 -15
-88 -20 -27 -5 -69 -14 -93 -19 -57 -13 -321 -13 -396 1 -174 30 -274 60 -389
113 -94 44 -257 149 -257 167 0 8 240 258 248 259 2 0 29 -18 62 -40z m2065
-61 c126 -34 196 -154 165 -284 -25 -106 -102 -165 -215 -165 -52 0 -73 5
-103 24 -66 42 -102 102 -109 184 -9 102 28 176 108 217 67 35 96 40 154 24z
m12620 -69 c3 -5 50 -48 103 -94 53 -46 131 -115 172 -154 l75 -71 -75 -3
c-142 -5 -680 -3 -680 2 0 3 12 13 28 22 15 10 54 43 87 74 53 50 142 128 200
176 78 65 79 65 90 48z m-2474 -446 c87 -19 223 -82 282 -132 63 -52 141 -146
175 -210 47 -89 74 -186 107 -387 9 -55 20 -122 25 -150 5 -27 16 -102 25
-165 9 -63 20 -137 25 -165 5 -27 14 -86 20 -130 6 -44 17 -111 25 -150 27
-139 35 -192 35 -224 0 -18 5 -41 10 -51 16 -30 -4 -32 -64 -5 -31 14 -67 25
-81 25 -13 0 -35 4 -50 10 -35 13 -160 -5 -252 -36 -76 -26 -93 -25 -93 6 0
50 -135 247 -209 307 -31 24 -64 51 -74 59 -34 28 -195 105 -231 111 l-36 6 0
321 0 321 -32 46 c-17 25 -47 55 -66 65 -35 19 -132 19 -4126 19 -3580 0
-4095 -2 -4126 -15 -39 -16 -78 -54 -91 -88 -5 -13 -12 -159 -15 -325 -3 -166
-7 -311 -9 -322 -3 -15 -21 -25 -67 -39 -72 -21 -205 -89 -279 -143 -64 -46
-167 -175 -215 -270 -36 -70 -57 -92 -69 -73 -4 6 -16 10 -28 10 -13 0 -31 6
-42 14 -23 15 -108 29 -175 29 -67 0 -143 -17 -185 -42 -68 -40 -69 -37 -31
154 9 44 19 96 22 115 2 19 9 58 14 85 9 46 26 156 50 325 5 36 17 110 25 165
9 55 20 129 26 165 19 129 41 245 50 268 5 13 9 31 9 41 0 21 20 68 63 143 31
57 101 139 144 171 48 34 161 95 218 116 107 40 -31 39 4696 40 4112 1 4533 0
4600 -15z m2577 -200 l52 -7 -2 -261 -3 -261 -74 -3 c-53 -2 -77 1 -82 10 -10
15 -12 512 -2 521 8 9 43 9 111 1z m-15537 -126 c82 -66 241 -180 384 -275
242 -161 399 -301 508 -454 55 -78 117 -196 117 -224 0 -12 4 -25 9 -30 32
-32 48 -338 24 -460 -14 -75 -57 -171 -83 -185 -31 -16 -308 -12 -382 6 -186
45 -323 134 -451 292 -173 214 -226 440 -214 916 4 132 7 289 7 349 0 126 2
128 81 65z m2495 -95 c1 -65 6 -220 9 -345 8 -295 -11 -474 -66 -617 -43 -115
-56 -140 -97 -206 -50 -79 -168 -205 -222 -238 -19 -11 -37 -24 -40 -27 -8
-11 -160 -80 -175 -80 -8 0 -40 -7 -72 -15 -71 -18 -123 -19 -147 -2 -17 12
-15 18 33 74 28 34 58 68 68 75 24 18 342 352 372 391 12 15 12 22 0 45 -19
37 -83 102 -101 102 -12 0 -116 -78 -154 -114 -6 -6 -51 -47 -99 -91 -49 -44
-128 -116 -175 -160 -200 -187 -278 -257 -286 -259 -23 -3 -44 328 -26 394 6
19 18 64 27 100 20 77 21 80 75 190 39 82 59 119 70 130 3 3 18 22 33 42 50
67 140 159 224 230 45 37 85 68 89 68 4 0 21 11 38 24 35 26 304 196 311 196
3 0 13 7 22 15 40 33 278 202 282 199 2 -2 5 -56 7 -121z m-1207 50 c33 -38
92 -95 130 -128 43 -35 71 -67 71 -79 0 -11 -35 -51 -83 -97 -46 -42 -103
-103 -127 -134 -46 -60 -70 -78 -93 -69 -8 3 -37 38 -66 79 -28 41 -85 105
-126 142 -41 37 -75 72 -75 77 0 5 39 48 88 95 48 48 105 108 128 134 57 67
77 64 153 -20z m13545 41 c9 -8 16 -19 16 -23 0 -5 25 -53 56 -107 83 -146
174 -324 174 -341 0 -13 -44 -37 -102 -53 -25 -8 -30 -4 -68 56 -22 35 -40 66
-40 69 0 3 -22 41 -50 85 -27 44 -50 82 -50 85 0 3 -20 36 -45 75 -25 39 -45
75 -45 80 0 9 118 89 132 90 4 0 14 -7 22 -16z m1424 -31 c58 -34 77 -62 53
-77 -5 -4 -20 -27 -33 -54 -91 -180 -215 -362 -248 -362 -25 0 -78 31 -85 50
-8 19 221 480 238 480 7 0 40 -17 75 -37z m532 -448 c22 -30 40 -61 40 -69 0
-18 -96 -94 -215 -171 -49 -32 -113 -74 -140 -92 -28 -18 -56 -33 -63 -33 -14
0 -72 77 -72 97 0 7 10 21 21 31 12 9 70 58 129 107 219 185 237 198 253 188
4 -2 25 -29 47 -58z m-2395 -31 c55 -47 137 -110 182 -140 98 -65 107 -78 86
-122 -15 -31 -57 -72 -73 -72 -11 0 -318 206 -367 246 -24 20 -43 44 -43 55 0
21 85 119 104 119 6 0 56 -39 111 -86z m-8398 28 c13 -8 21 -228 9 -240 -4 -3
-21 0 -39 8 -41 18 -223 26 -242 10 -9 -7 -15 -8 -20 -1 -10 18 -2 203 9 207
13 5 176 21 231 22 22 1 46 -2 52 -6z m-1253 -22 c13 -13 10 -257 -3 -293 -13
-33 -44 -39 -171 -35 l-95 3 0 165 0 165 30 7 c42 10 226 1 239 -12z m624 -95
c4 -135 -5 -215 -23 -215 -7 0 -15 6 -18 13 -9 23 -91 56 -169 68 -40 7 -75
13 -77 15 -9 8 -8 210 1 222 8 9 46 12 147 10 l136 -3 3 -110z m1278 103 c11
-18 17 -248 7 -293 l-9 -40 -139 0 -140 0 -3 167 -2 167 47 4 c116 9 232 7
239 -5z m1269 -148 c0 -85 -4 -163 -7 -172 -7 -16 -23 -18 -147 -18 l-139 0
-7 103 c-4 56 -5 131 -3 167 l3 65 95 6 c52 3 120 5 150 5 l55 -1 0 -155z
m625 16 c0 -79 -3 -158 -6 -175 l-6 -31 -143 0 -142 0 -5 53 c-7 74 -1 268 9
278 11 10 65 15 191 17 l102 2 0 -144z m619 135 c12 -7 14 -40 13 -165 -1 -86
-4 -161 -7 -166 -4 -6 -67 -10 -145 -10 l-139 0 -6 43 c-3 23 -5 98 -3 167 l3
125 55 6 c90 9 214 9 229 0z m1263 -109 c4 -62 4 -139 0 -170 l-7 -57 -137 -3
c-164 -3 -150 -21 -146 188 l3 145 95 6 c52 3 115 5 140 5 l45 -1 7 -113z
m619 106 c1 -13 1 -128 0 -187 -1 -32 -2 -33 -33 -26 -61 13 -200 17 -211 6
-6 -6 -21 -11 -34 -11 -22 0 -22 1 -17 98 3 53 7 102 9 109 5 15 43 19 178 21
79 2 107 -1 108 -10z m623 4 c3 -4 6 -55 7 -113 l2 -104 -64 -18 c-35 -10 -82
-23 -104 -29 -22 -6 -55 -22 -73 -36 -18 -13 -35 -22 -38 -19 -3 2 -6 74 -7
158 l-2 154 50 6 c78 9 223 10 229 1z m-4383 -166 c-1 -88 -4 -163 -7 -168 -3
-4 -67 -8 -143 -8 l-139 0 -4 38 c-8 61 -9 266 -2 285 6 16 21 17 152 15 l146
-3 -3 -159z m2529 4 c0 -147 -1 -160 -19 -170 -11 -5 -78 -10 -149 -10 l-129
0 -7 46 c-8 59 -8 257 0 278 5 14 28 16 155 16 l149 0 0 -160z m2461 148 c3
-40 -3 -287 -8 -306 -5 -22 -7 -23 -137 -20 l-131 3 -3 155 c-1 85 0 160 2
167 7 18 276 19 277 1z m3364 -278 c268 -38 530 -268 615 -540 31 -101 40
-228 26 -345 -12 -93 -19 -122 -47 -185 -66 -149 -131 -233 -282 -363 l-67
-59 0 -308 c0 -236 -3 -311 -12 -317 -15 -9 -669 -17 -704 -9 l-24 6 0 311 0
311 -28 26 c-143 135 -210 205 -240 251 -41 64 -102 195 -102 220 0 9 -4 21
-8 26 -14 16 -32 137 -32 211 0 118 27 228 84 343 87 177 264 328 454 387 142
44 234 52 367 34z m-4633 -315 c38 -26 82 -90 99 -147 20 -67 61 -314 88 -533
6 -44 15 -108 20 -143 6 -34 15 -92 20 -130 6 -37 15 -98 22 -137 11 -72 25
-163 38 -270 5 -33 18 -121 29 -195 12 -74 26 -175 32 -225 6 -49 16 -112 21
-140 6 -27 13 -63 16 -80 3 -16 16 -47 29 -67 72 -114 217 -119 291 -10 34 51
38 111 19 257 -28 205 -33 244 -44 335 -6 47 -15 108 -20 135 -6 28 -15 91
-22 140 -6 50 -18 128 -25 175 -7 47 -19 123 -25 170 -6 47 -15 108 -20 135
-12 68 -31 197 -40 270 -4 33 -11 78 -14 100 -39 239 -40 256 -25 283 24 44
94 77 165 77 54 0 67 -4 117 -38 58 -38 141 -133 150 -171 3 -11 14 -57 25
-101 11 -44 25 -105 31 -135 5 -30 15 -82 22 -115 6 -33 16 -89 21 -125 5 -36
13 -90 18 -120 4 -30 16 -98 25 -150 17 -95 23 -134 44 -265 6 -38 14 -77 16
-85 3 -9 10 -49 16 -90 19 -133 27 -183 44 -285 9 -55 20 -134 25 -175 20
-166 44 -226 110 -272 48 -35 127 -39 177 -8 44 26 85 91 93 148 7 43 5 70
-20 237 -4 33 -13 94 -19 135 -6 41 -13 82 -16 91 -3 10 -10 52 -16 96 -24
179 -29 213 -44 308 -9 55 -20 127 -25 160 -4 33 -16 107 -25 165 -9 58 -21
132 -25 165 -5 33 -13 87 -19 120 -5 33 -15 93 -21 133 -7 41 -9 84 -6 97 10
41 53 60 137 60 90 0 144 -23 214 -93 101 -99 136 -202 196 -567 11 -64 20
-114 43 -235 8 -41 19 -109 26 -150 6 -41 16 -95 22 -120 10 -47 19 -100 37
-210 5 -36 17 -105 26 -155 9 -49 20 -117 25 -150 15 -104 30 -150 61 -189 55
-65 131 -82 207 -46 88 43 121 128 102 270 -6 47 -15 105 -20 130 -15 74 -37
200 -50 280 -11 74 -32 194 -51 300 -6 30 -14 78 -19 105 -5 28 -16 84 -24
125 -21 97 -23 175 -6 195 28 33 74 48 147 48 61 -1 81 -5 125 -30 68 -38 134
-124 177 -229 18 -43 36 -88 40 -99 5 -11 16 -45 26 -75 9 -30 25 -77 35 -105
9 -27 24 -72 33 -100 42 -135 90 -288 113 -365 14 -47 30 -98 37 -115 16 -43
21 -984 7 -1444 -19 -628 -29 -851 -45 -996 -54 -475 -56 -513 -45 -801 6
-142 13 -364 17 -492 5 -215 5 -234 -12 -252 -10 -11 -23 -20 -30 -20 -7 0
-32 -10 -56 -23 -58 -31 -292 -119 -424 -160 -27 -9 -63 -20 -80 -26 -54 -18
-179 -54 -215 -62 -19 -4 -62 -15 -95 -24 -33 -9 -82 -21 -110 -26 -27 -6 -68
-14 -90 -18 -172 -37 -279 -55 -433 -71 -52 -5 -103 -12 -115 -16 -11 -4 -178
-12 -370 -18 -324 -10 -350 -10 -358 6 -5 9 -9 292 -9 645 -1 669 -3 700 -50
799 -13 26 -54 80 -92 119 -67 72 -132 111 -283 173 -27 12 -81 35 -118 51
-38 17 -72 31 -77 31 -14 0 -141 70 -225 125 -97 63 -235 195 -304 291 -28 40
-51 75 -51 78 0 3 -22 41 -48 84 -26 42 -56 93 -66 112 -24 48 -36 68 -73 122
-18 26 -33 49 -33 52 0 2 -27 45 -60 94 -33 50 -60 93 -60 96 0 4 -8 19 -19
34 -10 15 -67 106 -127 202 -59 96 -149 236 -198 310 -184 274 -201 341 -116
443 33 41 88 59 179 59 72 0 93 -4 126 -23 51 -28 118 -92 152 -144 15 -22 36
-50 46 -62 11 -12 25 -32 31 -43 6 -11 67 -111 136 -222 69 -110 136 -219 148
-242 13 -23 45 -75 71 -116 26 -41 80 -129 119 -196 39 -66 81 -131 91 -143
11 -13 21 -26 23 -31 2 -4 21 -19 42 -34 57 -38 119 -36 170 6 59 48 67 79 67
240 -1 77 -3 144 -6 149 -4 5 -10 82 -15 171 -25 435 -51 803 -75 1063 -9 94
-20 215 -25 270 -13 149 -28 299 -40 395 -5 47 -14 130 -20 185 -6 55 -17 163
-25 240 -8 77 -19 185 -25 240 -6 55 -15 134 -21 175 -5 41 -13 136 -16 211
-5 120 -4 139 12 165 68 108 201 138 307 69z m-5105 22 c18 -7 52 -28 76 -48
36 -31 45 -46 56 -91 8 -40 9 -67 2 -99 -6 -24 -11 -71 -11 -105 0 -33 -4 -85
-9 -115 -10 -52 -27 -216 -51 -474 -7 -66 -16 -151 -21 -190 -9 -65 -15 -122
-39 -360 -30 -298 -42 -422 -50 -515 -21 -270 -41 -549 -50 -695 -22 -396 -31
-537 -40 -630 -14 -149 9 -228 79 -278 74 -51 155 -28 226 65 19 26 78 121
129 210 52 90 141 237 198 328 57 91 117 188 133 215 74 129 198 306 242 345
79 69 136 93 223 94 67 1 80 -2 120 -29 94 -64 124 -145 85 -231 -19 -39 -110
-189 -130 -211 -5 -6 -54 -82 -108 -170 -54 -87 -161 -259 -238 -382 -77 -124
-152 -245 -165 -269 -14 -25 -41 -69 -60 -99 -18 -29 -34 -56 -34 -58 0 -12
-137 -227 -187 -292 -101 -133 -270 -263 -475 -364 -55 -27 -104 -49 -109 -49
-12 0 -107 -43 -218 -98 -159 -79 -245 -183 -285 -343 -14 -57 -16 -146 -16
-696 l0 -630 -57 -7 c-156 -18 -698 22 -948 70 -44 8 -105 20 -135 25 -62 12
-84 17 -265 59 -71 16 -143 34 -160 39 -16 4 -50 14 -75 21 -25 7 -72 22 -105
33 -33 11 -76 23 -95 28 -34 7 -148 47 -295 103 -38 15 -112 48 -164 73 l-94
47 9 396 c15 664 14 705 -35 1085 -43 334 -74 1018 -88 1892 -7 479 -6 494 56
708 13 45 107 337 172 537 88 268 121 328 219 398 63 45 91 55 156 54 65 0
102 -13 142 -48 25 -22 29 -74 12 -148 -19 -81 -53 -263 -61 -323 -4 -33 -15
-98 -24 -145 -9 -47 -19 -101 -21 -120 -3 -19 -9 -57 -14 -85 -5 -27 -16 -90
-25 -140 -9 -49 -20 -109 -25 -133 -6 -23 -10 -73 -10 -111 0 -158 119 -260
241 -206 46 20 62 34 81 70 34 65 44 105 69 260 22 144 27 172 43 260 9 50 21
115 26 145 10 63 34 199 49 280 18 100 63 354 71 405 31 191 87 323 168 401
75 72 198 123 262 109 18 -4 47 -20 66 -37 31 -28 34 -35 34 -88 0 -32 -4 -80
-10 -107 -17 -85 -38 -206 -49 -278 -6 -38 -20 -128 -32 -200 -12 -71 -25
-161 -30 -200 -9 -86 -28 -204 -35 -227 -2 -9 -9 -51 -15 -95 -15 -109 -25
-173 -44 -283 -25 -138 -30 -284 -11 -323 16 -35 58 -78 93 -96 31 -16 109
-14 143 4 66 34 101 109 124 265 10 63 19 129 22 145 3 17 9 57 14 90 5 33 17
114 28 180 11 66 28 165 36 220 9 55 23 136 31 180 9 44 20 105 25 135 5 30
16 96 25 145 9 50 20 113 24 140 45 272 85 420 136 499 64 100 127 136 240
136 l75 0 46 -45 47 -44 -7 -83 c-3 -46 -11 -105 -16 -133 -22 -117 -58 -351
-64 -415 -7 -82 -26 -205 -36 -234 -6 -16 -10 -51 -10 -77 0 -27 -4 -68 -9
-91 -11 -48 -28 -158 -42 -263 -16 -121 -27 -197 -45 -305 -26 -160 -30 -320
-9 -360 47 -91 141 -125 226 -83 84 42 103 89 134 328 9 72 20 149 26 173 5
23 9 56 9 72 0 27 10 93 39 270 5 30 15 93 21 140 6 47 18 123 25 170 8 47 18
119 24 160 6 41 18 125 26 185 9 61 20 132 25 158 6 27 10 64 10 83 0 18 4 53
10 76 5 24 17 79 26 123 20 93 41 139 82 180 51 51 145 69 219 42z m4432 -26
c12 -8 13 -14 3 -36 -7 -14 -12 -46 -12 -70 l0 -44 -1952 -3 c-1292 -2 -1957
0 -1965 7 -13 11 -36 133 -27 146 7 12 3935 11 3953 0z m3981 -92 c103 -15
106 -17 102 -75 -5 -81 1 -78 -123 -71 -61 3 -114 9 -117 12 -8 7 -3 135 5
148 3 5 17 6 32 3 14 -4 60 -11 101 -17z m2573 -28 c22 -62 22 -97 0 -106 -30
-11 -257 -25 -266 -16 -4 4 -7 37 -5 72 l3 64 99 12 c55 7 104 14 110 17 30
12 42 3 59 -43z m-10223 -489 c0 -193 4 -187 -135 -189 -61 0 -111 -6 -119
-12 -11 -9 -15 -7 -21 6 -7 21 -7 322 1 334 3 5 66 9 140 9 l134 0 0 -148z
m620 141 c1 -4 3 -46 6 -93 5 -78 -7 -235 -19 -247 -3 -2 -51 -10 -107 -16
-77 -8 -106 -8 -120 1 -14 9 -21 9 -26 0 -15 -24 -26 41 -31 184 -4 100 -2
152 5 161 13 15 292 25 292 10z m625 -175 c0 -97 -2 -178 -5 -180 -3 -2 -54 0
-115 4 -60 4 -120 8 -132 9 -12 1 -25 9 -29 18 -4 9 -9 79 -12 156 -3 112 -1
143 10 152 16 14 82 20 198 19 l85 -1 0 -177z m643 30 c2 -124 0 -152 -14
-173 -18 -28 -70 -35 -93 -12 -10 10 -15 8 -27 -8 -14 -19 -15 -19 -20 3 -6
19 -11 21 -48 16 -25 -4 -50 -15 -63 -30 -16 -17 -24 -21 -30 -11 -13 20 -17
335 -4 350 8 10 46 14 153 13 l143 -1 3 -147z m630 -7 c-2 -94 -7 -164 -13
-171 -13 -12 -225 -31 -256 -23 -11 3 -25 17 -30 30 -13 34 -12 296 2 310 6 6
69 11 155 12 l145 2 -3 -160z m614 142 c13 -16 12 -260 -1 -295 -6 -17 -18
-28 -29 -28 -10 0 -22 -3 -26 -7 -8 -8 -18 -9 -124 -15 -54 -3 -65 -1 -84 19
-19 21 -21 34 -22 175 l-1 153 35 7 c59 11 241 4 252 -9z m540 -48 c3 -33 9
-107 12 -165 7 -110 0 -144 -26 -122 -18 15 -132 9 -153 -8 -8 -7 -19 -10 -23
-6 -8 9 -16 332 -8 352 5 12 25 14 98 12 l93 -3 7 -60z m6316 -259 c15 -8 66
-34 115 -56 80 -39 87 -45 87 -71 0 -25 -54 -129 -67 -129 -2 0 -19 11 -37 25
-18 14 -36 25 -40 25 -3 0 -36 18 -71 41 -45 28 -65 47 -65 61 0 30 22 102 35
110 13 10 13 10 43 -6z m-2231 -8 c14 -22 33 -82 33 -104 0 -15 -11 -27 -34
-38 -19 -9 -57 -34 -85 -56 -28 -22 -53 -40 -55 -40 -8 0 -81 149 -75 153 10
8 195 96 201 97 4 0 10 -6 15 -12z m-14360 -23 c40 -17 197 -165 219 -206 12
-25 11 -30 -12 -65 -41 -60 -172 -182 -209 -194 -42 -14 -109 2 -144 33 -53
49 -159 197 -154 216 8 33 165 193 208 212 49 23 47 23 92 4z m1989 -19 c70
-61 181 -173 193 -194 6 -11 11 -28 11 -36 0 -17 -152 -180 -213 -228 -47 -37
-71 -33 -133 24 -70 65 -184 204 -184 224 1 22 152 182 207 219 48 33 72 31
119 -9z m6314 18 c0 -8 -4 -12 -10 -9 -5 3 -10 10 -10 16 0 5 5 9 10 9 6 0 10
-7 10 -16z m-7240 -315 c75 -26 154 -91 383 -320 130 -130 237 -240 237 -245
0 -10 -88 -94 -100 -94 -5 0 -13 6 -17 13 -4 8 -48 49 -98 93 -49 43 -128 116
-175 161 -194 187 -282 237 -378 213 -118 -29 -179 -73 -457 -330 -86 -80
-160 -146 -165 -148 -12 -5 -80 71 -80 89 0 21 459 485 520 526 74 50 124 64
215 58 44 -2 96 -10 115 -16z m9265 9 c5 -13 17 -130 35 -323 5 -55 13 -138
19 -185 5 -47 14 -139 20 -205 6 -66 16 -156 21 -200 8 -72 23 -219 34 -348 7
-71 -1 -84 -31 -55 -36 33 -113 134 -113 148 0 7 -64 75 -142 153 l-143 141 0
250 0 251 -27 52 c-37 72 -70 106 -133 137 l-54 26 -1476 0 c-1312 0 -1483 -2
-1531 -16 -72 -21 -158 -98 -193 -174 -24 -54 -25 -60 -25 -288 l-1 -234 -50
-41 c-135 -113 -300 -292 -368 -399 -10 -16 -22 -28 -27 -28 -13 0 -13 62 -1
148 10 68 34 278 51 452 6 52 21 196 35 320 14 124 30 267 35 319 6 51 13 97
16 102 3 5 864 9 2025 9 1607 0 2021 -3 2024 -12z m6102 -428 c134 -31 427
-124 452 -144 12 -9 13 -54 8 -266 -7 -296 -32 -514 -74 -665 -11 -38 -33
-115 -48 -170 -51 -185 -126 -402 -160 -465 l-14 -25 -1023 0 -1023 0 3 725
c3 679 0 792 -24 927 -7 39 11 51 95 59 l60 7 4 -529 c3 -430 7 -539 19 -584
60 -219 273 -392 558 -455 103 -23 298 -31 397 -16 194 28 374 133 472 275
104 152 103 141 110 772 5 437 9 544 20 557 18 22 61 21 168 -3z m-15456 -75
c13 -14 58 -59 99 -99 71 -71 101 -99 219 -209 28 -27 51 -54 51 -61 0 -15
-376 -380 -397 -384 -18 -5 -404 388 -395 403 3 5 53 55 111 110 58 55 142
137 186 183 44 45 86 82 92 82 6 0 21 -11 34 -25z m8713 -1 c8 -20 8 -208 0
-256 l-7 -38 -1373 0 -1374 0 0 149 0 150 28 4 c15 2 633 5 1373 6 1220 1
1347 0 1353 -15z m-9810 -356 c112 -96 229 -200 391 -347 227 -207 260 -239
252 -247 -8 -8 -678 -6 -686 2 -13 12 -30 200 -37 390 -6 184 -3 254 12 254 4
0 34 -24 68 -52z m2116 -302 l0 -293 -319 0 c-298 0 -319 2 -311 17 8 15 64
66 159 145 13 11 60 55 105 98 44 44 119 113 165 155 47 43 108 98 135 124 28
26 54 48 59 48 4 0 7 -132 7 -294z m13818 112 c17 -17 16 -390 -1 -438 -28
-83 -80 -126 -200 -167 -157 -53 -336 -12 -450 102 -38 38 -56 65 -65 99 -12
48 -17 370 -6 400 5 14 46 16 358 16 260 0 355 -3 364 -12z m-6675 -104 c4 -4
-2 -19 -13 -34 -11 -16 -20 -35 -20 -44 0 -8 -5 -25 -10 -38 -6 -13 -14 -72
-18 -133 l-7 -110 -772 0 c-424 0 -774 2 -777 5 -3 3 0 26 5 50 14 57 -3 165
-37 238 -13 29 -24 57 -24 62 0 11 1662 14 1673 4z m-7375 -689 l232 -7 0
-173 0 -173 -103 -7 c-57 -4 -481 -4 -943 -1 -461 4 -847 6 -856 6 -14 0 -45
54 -88 155 -24 55 -61 179 -57 189 5 13 1444 22 1815 11z m7520 -67 c21 -29
59 -89 85 -133 27 -44 72 -114 102 -155 30 -41 59 -84 65 -95 6 -11 28 -47 50
-80 22 -33 43 -67 47 -75 3 -8 30 -51 58 -95 165 -253 235 -364 235 -370 0 -3
37 -64 82 -137 68 -110 102 -152 195 -245 62 -61 113 -114 113 -117 0 -3 -907
-6 -2015 -6 -1108 0 -2015 2 -2015 5 0 2 46 51 102 107 99 101 204 231 235
292 16 32 120 204 207 341 28 45 56 88 61 97 6 9 27 43 48 75 164 247 259 396
337 528 29 50 58 93 64 97 6 4 422 8 925 8 503 0 916 2 919 5 3 3 18 5 33 5
23 0 36 -11 67 -52z m7143 -615 c10 -10 1 -29 -41 -90 -89 -132 -72 -123 -231
-123 -111 0 -146 4 -176 18 -21 9 -41 22 -46 29 -4 6 -22 16 -41 23 -40 13
-63 5 -140 -46 -57 -37 -155 -68 -184 -57 -10 4 -41 24 -70 46 -124 90 -169
86 -310 -25 -79 -64 -140 -50 -336 78 -55 36 -88 35 -132 -3 -16 -14 -46 -33
-66 -44 -20 -10 -39 -23 -43 -29 -3 -5 -18 -10 -32 -10 l-26 0 6 116 c4 82 9
119 19 125 7 5 423 7 925 6 701 -1 915 -5 924 -14z m-14439 -61 c7 -7 13 -330
6 -337 -5 -5 -1468 -12 -1500 -7 -20 3 -41 21 -72 61 -64 83 -188 279 -183
288 6 10 1739 5 1749 -5z m13215 -478 c18 -20 32 -24 77 -24 60 0 151 20 184
41 19 12 25 10 49 -12 15 -14 70 -54 121 -89 50 -35 92 -69 92 -77 0 -7 7 -16
15 -19 23 -9 57 -74 42 -80 -21 -8 -1205 0 -1213 9 -8 7 -8 16 -4 159 3 102
-4 96 125 86 89 -7 137 -1 182 25 16 9 63 11 165 9 135 -4 144 -6 165 -28z
m-13791 -244 l584 0 0 -234 c0 -173 -3 -237 -12 -242 -7 -4 -145 -7 -307 -5
l-295 2 -86 54 c-47 30 -96 64 -110 75 -14 11 -63 50 -109 85 -144 112 -281
238 -281 258 0 13 5 17 16 13 9 -3 279 -6 600 -6z m13977 -331 c23 -6 57 -23
76 -39 42 -36 45 -32 -107 -147 -193 -146 -172 -137 -358 -141 -131 -3 -167
-1 -191 11 -53 28 -233 207 -233 232 0 43 105 96 163 81 13 -3 63 -39 112 -81
48 -41 98 -78 111 -81 32 -8 77 11 143 60 89 68 142 99 180 107 53 10 58 10
104 -2z m-7333 -239 c114 -34 217 -95 359 -213 41 -34 115 -95 165 -136 50
-41 105 -89 121 -105 30 -31 156 -139 270 -231 53 -43 144 -122 232 -202 54
-49 4 -76 -167 -90 -139 -12 -223 9 -302 75 -13 11 -72 62 -133 113 -60 52
-137 116 -170 142 -33 27 -85 72 -115 101 -77 74 -164 143 -208 165 -110 56
-275 84 -362 61 -25 -6 -58 -14 -75 -17 -45 -9 -150 -81 -245 -169 -47 -43
-121 -110 -165 -149 -44 -38 -89 -81 -102 -93 -26 -28 -22 -30 -127 60 -45 38
-91 77 -103 88 -13 10 -23 25 -23 32 0 24 192 203 423 396 187 156 323 205
548 197 71 -2 131 -11 179 -25z m-1410 -8 c54 -12 183 -67 188 -80 4 -12 -141
-156 -195 -193 -37 -26 -50 -29 -120 -30 -125 -1 -238 -37 -334 -108 -82 -61
-100 -76 -150 -123 -46 -43 -174 -160 -278 -253 -61 -54 -169 -155 -239 -222
-24 -24 -48 -43 -54 -43 -5 0 -6 72 -2 183 l7 182 34 54 c19 30 40 60 46 66 7
7 32 36 56 64 52 62 188 195 222 218 13 9 29 21 34 28 14 15 171 135 179 135
3 0 30 15 59 34 56 36 143 69 237 91 61 15 238 13 310 -3z m2757 -1 c102 -6
148 -22 107 -37 -22 -8 -78 -58 -226 -201 l-106 -103 -75 51 c-41 27 -109 82
-152 121 -90 84 -144 128 -156 128 -5 0 -9 4 -9 9 0 29 368 48 617 32z m1180
-146 c133 -88 199 -141 308 -251 108 -108 124 -126 175 -193 14 -18 34 -45 46
-59 37 -49 45 -98 42 -257 -3 -149 -3 -150 -26 -148 -12 2 -41 15 -63 30 -23
16 -49 33 -58 38 -9 6 -46 32 -81 60 -36 27 -71 54 -79 60 -7 5 -27 22 -43 38
l-30 27 7 93 c9 112 -6 180 -64 307 -9 19 -19 37 -23 38 -14 6 -8 24 15 42 12
10 19 22 15 26 -5 4 -16 0 -26 -9 -23 -21 -32 -21 -32 -3 0 8 -16 32 -35 53
-19 21 -38 46 -41 56 -3 9 -9 17 -13 17 -12 0 -71 59 -71 70 0 15 3 14 77 -35z
m-456 -161 c183 -92 279 -234 279 -411 0 -66 -16 -151 -31 -167 -5 -6 -9 -16
-9 -24 0 -8 -20 -43 -45 -77 -42 -59 -92 -99 -167 -133 -16 -6 -40 -17 -54
-24 -40 -19 -219 -15 -279 6 -137 48 -247 162 -290 300 -20 66 -17 194 7 256
58 150 188 272 322 300 22 5 80 7 127 5 69 -3 98 -9 140 -31z m-2264 -366 c60
-26 147 -90 283 -208 60 -52 86 -73 247 -200 115 -90 133 -105 133 -114 0 -3
-288 -6 -640 -6 -529 0 -640 2 -640 13 0 14 104 119 215 218 33 30 104 97 158
149 101 97 181 160 203 160 7 0 26 -5 41 -12z m-1319 -64 c45 -36 87 -73 94
-82 7 -9 72 -70 143 -136 196 -178 232 -224 190 -239 -25 -10 -1135 -8 -1135
2 0 5 19 23 41 40 23 17 72 59 108 93 36 35 100 92 141 128 41 35 99 88 127
116 29 28 69 65 89 80 20 16 46 37 58 46 35 29 58 21 144 -48z"/>
<path d="M10588 13137 c-59 -17 -90 -37 -125 -84 -25 -32 -28 -45 -28 -108 0
-98 22 -126 154 -194 135 -69 161 -92 161 -141 0 -84 -118 -124 -181 -61 -17
17 -29 40 -29 55 0 25 -2 26 -65 26 l-65 0 0 -32 c1 -52 34 -114 81 -147 110
-81 269 -62 352 41 59 74 45 203 -29 268 -19 17 -75 51 -125 75 -109 55 -129
74 -129 120 0 29 6 39 33 55 60 37 129 20 149 -37 12 -33 13 -33 75 -33 l64 0
-7 38 c-12 69 -46 113 -110 145 -45 23 -122 29 -176 14z"/>
<path d="M11911 13136 c-117 -38 -193 -184 -192 -369 0 -154 48 -267 140 -332
38 -27 51 -30 116 -30 65 0 78 3 117 30 175 123 197 478 40 640 -65 66 -140
87 -221 61z m135 -141 c45 -48 59 -101 59 -225 0 -122 -19 -184 -66 -225 -64
-53 -152 -13 -178 80 -30 107 -20 317 17 358 22 25 69 46 106 47 20 0 38 -10
62 -35z"/>
<path d="M12579 13136 c-110 -29 -172 -121 -154 -227 11 -64 62 -111 185 -174
84 -44 111 -62 125 -89 16 -29 17 -38 5 -65 -35 -86 -175 -80 -201 9 l-12 40
-58 0 c-66 0 -72 -7 -57 -75 33 -154 283 -210 399 -88 20 21 42 49 49 63 18
35 17 129 -3 166 -25 48 -91 101 -180 144 -120 59 -156 111 -107 160 55 55
170 27 170 -42 0 -15 9 -18 65 -18 63 0 65 1 65 25 0 74 -75 156 -159 174 -63
13 -73 13 -132 -3z"/>
<path d="M6531 13127 c-73 -23 -131 -107 -131 -190 0 -28 0 -28 58 -25 52 3
57 5 60 28 9 74 40 100 120 100 64 0 111 -26 136 -75 18 -35 21 -62 24 -222 5
-210 1 -236 -31 -231 -22 3 -22 6 -25 166 l-2 162 -55 0 c-31 0 -55 -4 -55
-10 0 -7 -6 -7 -19 0 -11 5 -38 10 -61 10 -98 0 -143 -65 -144 -210 -1 -142
41 -215 134 -227 50 -7 85 2 112 29 14 14 23 18 26 10 6 -19 58 -42 94 -42 39
0 90 29 113 63 35 54 42 307 14 457 -18 95 -76 173 -151 204 -43 18 -165 20
-217 3z m76 -413 c12 -19 17 -48 18 -101 0 -66 -3 -77 -22 -93 -27 -22 -59
-16 -75 14 -16 28 -15 155 0 184 18 31 57 29 79 -4z"/>
<path d="M7160 12775 l0 -365 65 0 65 0 0 160 0 160 110 0 110 0 0 60 0 60
-110 0 -110 0 0 85 0 85 135 0 135 0 0 60 0 60 -200 0 -200 0 0 -365z"/>
<path d="M7780 12775 l0 -365 230 0 230 0 0 60 0 60 -170 0 -170 0 0 100 0
100 140 0 140 0 0 60 0 60 -140 0 -140 0 0 85 0 85 160 0 160 0 0 60 0 60
-220 0 -220 0 0 -365z"/>
<path d="M8440 12775 l0 -365 245 0 245 0 0 60 0 60 -180 0 -180 0 0 305 0
305 -65 0 -65 0 0 -365z"/>
<path d="M9090 12775 l0 -365 65 0 65 0 0 144 0 143 108 5 c83 4 116 9 149 26
88 46 137 151 113 243 -15 55 -99 145 -149 159 -20 5 -107 10 -193 10 l-158 0
0 -365z m324 235 c27 -10 56 -56 56 -90 0 -37 -28 -77 -61 -89 -18 -6 -67 -11
-110 -11 l-79 0 0 100 0 100 84 0 c47 0 96 -4 110 -10z"/>
<path d="M9770 12775 l0 -365 230 0 230 0 0 60 0 60 -165 0 -165 0 0 100 0
100 140 0 140 0 0 60 0 60 -140 0 -140 0 0 85 0 85 160 0 160 0 0 60 0 60
-225 0 -225 0 0 -365z"/>
<path d="M11090 12776 l0 -366 65 0 65 0 0 145 0 145 34 0 c34 0 36 -2 111
-141 43 -77 83 -143 90 -145 7 -3 39 -4 73 -2 l60 3 -85 145 c-47 80 -87 150
-89 156 -3 5 11 17 30 26 98 47 132 197 67 302 -13 20 -44 49 -69 64 -45 26
-54 27 -199 30 l-153 4 0 -366z m279 230 c74 -39 64 -153 -17 -175 -20 -6 -58
-11 -84 -11 l-48 0 0 100 0 100 60 0 c34 0 73 -6 89 -14z"/>
<path d="M13227 13133 c-3 -5 -46 -162 -96 -351 -51 -189 -95 -350 -98 -358
-4 -11 8 -14 61 -14 l65 0 11 43 c6 23 16 60 21 82 21 82 11 76 112 73 l92 -3
17 -75 c9 -41 20 -85 23 -97 5 -21 11 -23 76 -23 53 0 70 3 67 13 -3 6 -45
171 -94 364 l-89 353 -82 0 c-45 0 -84 -3 -86 -7z m112 -275 l28 -128 -65 0
c-61 0 -64 1 -59 23 3 12 18 76 34 142 15 66 29 113 31 105 1 -8 15 -72 31
-142z"/>
<path d="M2568 13231 c-572 -6 -587 -7 -614 -27 -52 -39 -69 -71 -69 -132 0
-67 23 -119 66 -151 45 -33 151 -37 789 -31 563 5 565 5 600 27 95 60 117 184
47 263 -53 60 -26 59 -819 51z"/>
<path d="M17485 11401 c-41 -18 -95 -78 -95 -105 0 -8 -4 -18 -10 -21 -14 -9
-13 -78 2 -112 49 -115 139 -156 253 -117 87 29 125 85 125 184 0 51 -4 66
-31 103 -33 46 -46 55 -99 74 -49 18 -98 16 -145 -6z"/>
<path d="M16940 11113 c-79 -26 -113 -63 -135 -146 -12 -48 -12 -62 0 -104 36
-123 178 -182 271 -114 54 39 70 60 83 106 25 90 6 167 -55 221 -39 36 -116
53 -164 37z"/>
<path d="M8607 6689 c7 -7 29 -7 69 -1 l59 10 -69 1 c-50 1 -67 -2 -59 -10z"/>
<path d="M18174 5367 c-60 -76 -61 -148 -2 -204 26 -25 37 -28 93 -28 71 0 94
14 126 77 24 48 24 83 -1 123 -31 50 -61 65 -129 65 -56 0 -62 -2 -87 -33z"/>
<path d="M9105 3780 c-77 -19 -107 -45 -141 -126 -14 -33 -14 -41 1 -87 23
-69 53 -106 103 -128 42 -18 84 -19 861 -19 797 0 818 1 859 20 25 12 54 38
74 68 28 40 33 55 33 109 0 57 -3 65 -35 98 -19 20 -49 42 -65 49 -24 10 -216
14 -845 18 -448 3 -828 2 -845 -2z"/>
</g>
</svg>
